<mxfile host="app.diagrams.net" modified="2023-11-10T16:34:40.844Z" agent="Mozilla/5.0 (Windows NT 10.0; Win64; x64) AppleWebKit/537.36 (KHTML, like Gecko) Chrome/119.0.0.0 Safari/537.36" version="22.1.0" etag="0kTL0WQ_tsxuG7QJSLM1" type="github">
  <diagram name="PÃ¡gina-1" id="ciY3ZeIA3MOXj7dlnDYA">
    <mxGraphModel>
      <root>
        <mxCell id="0" />
        <mxCell id="1" parent="0" />
      </root>
    </mxGraphModel>
  </diagram>
</mxfile>
